<svg xmlns="http://www.w3.org/2000/svg" viewBox="0 0 255.78 226.15">
    <defs>
        <style>.cls-5{fill:#fff}.cls-8{fill:#3c2517}</style>
        <linearGradient id="linear-gradient" x1="1151.65" y1="-2617.01" x2="1373.34" y2="-2617.01"
                        gradientTransform="rotate(-75.5 2467.783 -526.106)" gradientUnits="userSpaceOnUse">
            <stop offset="0" stop-color="#5564ff"/>
            <stop offset="1" stop-color="#00b369"/>
        </linearGradient>
        <linearGradient id="linear-gradient-2" x1="1881.97" y1="-2837.52" x2="2103.65" y2="-2837.52"
                        gradientTransform="rotate(-91.7 2496.602 -461.37)" gradientUnits="userSpaceOnUse">
            <stop offset="0" stop-color="#005ad3"/>
            <stop offset="1" stop-color="#5564ff"/>
        </linearGradient>
        <linearGradient id="linear-gradient-3" x1="253.97" y1="906.57" x2="321.65" y2="906.57"
                        gradientTransform="rotate(22.01 2376.77 -175.235)" gradientUnits="userSpaceOnUse">
            <stop offset="0" stop-color="#4bf"/>
            <stop offset=".99" stop-color="#096"/>
        </linearGradient>
        <linearGradient id="linear-gradient-4" x1="172.78" y1="-7.57" x2="240.45" y2="-7.57"
                        gradientTransform="rotate(.49 -7718.418 -13343.969)" gradientUnits="userSpaceOnUse">
            <stop offset="0" stop-color="#5564ff"/>
            <stop offset="1" stop-color="#00b4ff"/>
        </linearGradient>
    </defs>
    <path d="M204.19 16.15c48.86 12.67 60.65 69.26 45.26 127.68s-74.21 93.77-131.4 78.94S-15.18 146.44 73 99.85s82.33-96.37 131.19-83.7z"
          fill="url(#linear-gradient)" opacity=".43"/>
    <path d="M164.2 0c50.46-1.55 77.66 49.46 79.3 109.85s-44.91 110.82-104 112.65-149.26-35.83-77.7-105.3S113.75 1.6 164.2 0z"
          fill="url(#linear-gradient-2)" opacity=".43"/>
    <path d="M49.22 58.85a8.94 8.94 0 0 0 4.93 11.63l5.65 2.28-6.52 16.13-16.08-6.5 2.28-5.65a9 9 0 0 0-4.93-11.63A8.93 8.93 0 0 0 22.89 70l-2.29 5.68-16.13-6.52 7.78-19.23-8.77-3.54A5.58 5.58 0 0 1 7.67 36l8.76 3.54 7.78-19.22 19.22 7.77L47 19.36a5.58 5.58 0 0 1 10.35 4.18l-3.55 8.77L73 40.09l-6.51 16.12-5.65-2.28a8.92 8.92 0 0 0-11.62 4.92z"
          fill="url(#linear-gradient-3)"/>
    <path d="M111 67.37a9 9 0 0 0 8.85 9l6.12.05-.15 17.39-17.38-.14v-6.1a8.93 8.93 0 1 0-17.86-.15v6.09l-17.4-.14.18-20.74-9.46-.08a5.59 5.59 0 0 1 .1-11.16l9.45.08.18-20.73 20.74.17.08-9.45a5.58 5.58 0 0 1 11.16.09l-.08 9.45 20.74.17-.15 17.4h-6.11a8.94 8.94 0 0 0-9.01 8.8z"
          fill="url(#linear-gradient-4)"/>
    <path class="cls-5"
          d="M201 153.51s.73-1.91-5.44-4c0 0-23.8-13.08-29.83-16.45-14.94-2.14-15-1.71-24-2.21a145.1 145.1 0 0 0-18.73 2.24c-6 3.37-27.48 14.1-27.48 14.1-6.17 2.06-7.79 6.32-7.79 6.32-9 12.93-8.66 37.47-8.66 37.47 12.65 7.56 54.74 5.94 65.31 5.7 10.56.24 52.65 1.86 65.3-5.7-.02.02.32-24.54-8.68-37.47z"/>
    <path fill="#d8ba9e" d="M163.15 134.27l-18.84 9.17-18.76-9.17v-22.02h37.6v22.02z"/>
    <path d="M179.69 83.71c0 22.2-3.28 46.2-35.48 46.2-20.21 0-24.33-14.26-33.28-26.53-2.45-3.34-5.11-7-5.45-10.68-.26-2.93.67-7.74.67-10.66a38.61 38.61 0 0 1 38.06-38.52c19.6 0 35.48 18 35.48 40.19z"
          fill="#f0d0b1"/>
    <circle class="cls-8" cx="137.88" cy="95.17" r="1"/>
    <circle class="cls-8" cx="160.55" cy="95.17" r="1"/>
    <path fill="#d71921"
          d="M152.52 196.85h-16.5l6.04-45.24-3.36-5.07 2.04-8.31h7.05l2.05 8.31-3.34 5.07 6.02 45.24z"/>
    <path fill="#b7b7b7"
          d="M165.62 133.39l-2.61-1.41-18.62 5.75-18.66-5.57-2.57 1.23 12.51 17.08 8.72-11 8.72 11 12.51-17.08z"/>
    <path class="cls-5"
          d="M165.5 133.07l-2.59-1.09-18.64 5.21-18.64-5.03-2.59.91 12.51 16.23 8.72-10.46 8.72 10.46 12.51-16.23z"/>
    <path d="M208.08 153.51s-3.67-11.76-12.52-13.43a227.93 227.93 0 0 0-29.83-7s-9.21 26.63-21.37 62.61C132 160.31 123 133.09 123 133.09c-17.27 3.65-29.83 7-29.83 7-7.87 1.38-12.52 13.43-12.52 13.43-8.28 14-5.12 37.47-5.12 37.47 12.65 7.56 58.28 8.29 68.85 8.05 10.56.24 55-.49 67.66-8.05-.04.01 3.23-23.45-3.96-37.48z"
          fill="#0b2347"/>
    <path fill="#091f3b"
          d="M176.22 135.08l-10.88-2.12-20.75 61.52-21.14-61.52-10.68 2.37.2 21.25 10.53 1.03-5.27 6.34 25.74 32.34-.95 2.74 1.57-1.96 1.58 1.98-.96-2.77 25.74-32.34-5.26-6.35 10.53-1.03v-21.48z"/>
    <path class="cls-8"
          d="M118.89 41.13s8.59-8.39 25.18-8S168.81 43 175.5 52.61s3.5 23.1 11.65 25.59c11.47 3.51-19.36 14.7-32.31-1 0 0-.73 3.92 4.36 6.72 0 0-15.42.56-35.07-16.93 0 0-4.95-4.34-7 1.82 0 0-3 13.29-5.38 14.69 0 0-2.63-3.73-4.37-.7s-3.2 16.23 4.37 18.33l2.12 5.73s-18-11.72-13-46.45c-.03.03.41-20.41 18.02-19.28z"/>
</svg>
