<svg xmlns="http://www.w3.org/2000/svg" viewBox="0 0 237.77 226.15">
    <defs>
        <style>.cls-3{fill:#d8ba9e}.cls-4{fill:#fff}.cls-7{fill:#3c2517}</style>
        <linearGradient id="linear-gradient" x1="909.54" y1="-2341.19" x2="1131.23" y2="-2341.19"
                        gradientTransform="rotate(-75.5 2160.088 -533.447)" gradientUnits="userSpaceOnUse">
            <stop offset="0" stop-color="#5564ff"/>
            <stop offset="1" stop-color="#00b369"/>
        </linearGradient>
        <linearGradient id="linear-gradient-2" x1="1557.73" y1="-2554.42" x2="1779.41" y2="-2554.42"
                        gradientTransform="rotate(-91.7 2188.187 -468.638)" gradientUnits="userSpaceOnUse">
            <stop offset="0" stop-color="#005ad3"/>
            <stop offset="1" stop-color="#5564ff"/>
        </linearGradient>
        <linearGradient id="linear-gradient-3" y1="44.37" x2="64.8" y2="44.37" gradientUnits="userSpaceOnUse">
            <stop offset="0" stop-color="#5564ff"/>
            <stop offset="1" stop-color="#00b4ff"/>
        </linearGradient>
        <linearGradient id="linear-gradient-4" x1="35.94" y1="60.71" x2="100.73" y2="60.71"
                        gradientUnits="userSpaceOnUse">
            <stop offset="0" stop-color="#4bf"/>
            <stop offset=".99" stop-color="#096"/>
        </linearGradient>
    </defs>
    <path d="M186.18 16.15c48.82 12.67 60.65 69.26 45.27 127.68S157.23 237.6 100 222.77-33.18 146.44 55 99.85s82.32-96.37 131.18-83.7z"
          fill="url(#linear-gradient)" opacity=".43"/>
    <path d="M146.2 0c50.45-1.55 77.65 49.46 79.29 109.85s-44.91 110.82-104 112.65-149.26-35.83-77.7-105.3S95.75 1.6 146.2 0z"
          fill="url(#linear-gradient-2)" opacity=".43"/>
    <path class="cls-3"
          d="M180.25 160.49s.62-1.61-4.59-3.35c0 0-20.1-11-25.18-13.89-7.61-5.6-9.48-8.86-18.29-8.86-7.82 0-13.76 6-17.81 8.86-4.76 3.38-23.2 11.91-23.2 11.91-5.21 1.73-6.58 5.33-6.58 5.33-7.56 10.92-7.32 31.63-7.32 31.63 10.68 6.39 46.23 5 55.15 4.82 8.91.21 44.46 1.57 55.14-4.82 0 0 .25-20.71-7.32-31.63z"/>
    <path class="cls-3" d="M121.17 117.44h22.58v30.02h-22.58z"/>
    <path class="cls-4" d="M112.87 154.4a65.68 65.68 0 0 0 39.5 0l-6.5 28.75-13.44 15.78L120 183.65z"/>
    <path d="M167.84 88.91c0 22.2-15.88 40.2-35.48 40.2s-35.48-18-35.48-40.2 15.89-40.19 35.48-40.19 35.48 17.99 35.48 40.19z"
          fill="#f0d0b1"/>
    <path d="M182.23 160.49a14.05 14.05 0 0 0-6.57-5.33s-20.1-9.06-25.18-11.91c0 0 2.09 23.7-18 52.86-20.15-29.16-18.05-52.86-18.05-52.86-5.09 2.85-25.19 11.91-25.19 11.91a16.53 16.53 0 0 0-6.57 5.33c-7.57 10.92-7.32 31.63-7.32 31.63 10.68 6.39 48.21 7 57.13 6.81 8.91.2 46.44-.42 57.12-6.81-.05 0 .2-20.71-7.37-31.63z"
          fill="#0b2347"/>
    <circle class="cls-7" cx="121.03" cy="96.67" r="1"/>
    <circle class="cls-7" cx="143.7" cy="96.67" r="1"/>
    <path class="cls-7"
          d="M105.36 66.73s24.87 20 58.11 25.75c0 0 3.39 25-19.72 34.51 0 0 21.87 1.29 30.95-6.55 0 0 7.92-77.36-42.27-77.48-17.93-.05-48.43 4.62-41.16 77.48 0 0 9.35 8.67 29.9 6.62 0 0-17.73-5.93-19.33-30.61-.49-7.45-.84-17.61 3.52-29.72z"/>
    <path d="M1.74 43.35A31.32 31.32 0 0 0 5.33 58C3.91 62.71 0 76.93 0 76.93s14.21-4.33 18.92-5.5A31.53 31.53 0 1 0 1.74 43.35z"
          fill="url(#linear-gradient-3)"/>
    <circle class="cls-4" cx="21.98" cy="44.37" r="3"/>
    <circle class="cls-4" cx="33.4" cy="44.37" r="3"/>
    <circle class="cls-4" cx="44.82" cy="44.37" r="3"/>
    <path d="M99 59.68a31.32 31.32 0 0 1-3.6 14.63c1.42 4.74 5.33 19 5.33 19s-14.21-4.33-18.91-5.49A31.54 31.54 0 1 1 99 59.68z"
          fill="url(#linear-gradient-4)" />
    <circle class="cls-4" cx="56.13" cy="60.71"  r="3"/>
    <circle class="cls-4" cx="67.55" cy="60.71" r="3"/>
    <circle class="cls-4" cx="78.96" cy="60.71" r="3"/>
</svg>
